# xmcd
#
# Track frame offsets: 
#        150
#        19221
#        40189
#        58446
#        78307
#        98875
#        120865
#        141884
#        161521
#        180851
#
# Disc length: 2684 seconds
#
# Revision: 1
# Processed by: cddbd v1.5.2PL0 Copyright (c) Steve Scherf et al.
# Submitted via: ExactAudioCopy v0.99pb5
#
DISCID=780a7a0a
DTITLE=Don Perignon Y La Orq. Puertorriquena - AQUI, SI QUE HAY
DYEAR=2007
DGENRE=Salsa
TTITLE0=PERIGNON ANEJO
TTITLE1=DIME QUE PASO
TTITLE2=NO QUIERO LLANTO
TTITLE3=ASI DICE PERIGNON
TTITLE4=YO SOY LA RUMBA
TTITLE5=BAMBARAKATUNGA
TTITLE6=AMOR DE LA CALLE
TTITLE7=BAILA
TTITLE8=TU GUARACHITA
TTITLE9=SABOR DE RUMBA
EXTD=
EXTT0=
EXTT1=
EXTT2=
EXTT3=
EXTT4=
EXTT5=
EXTT6=
EXTT7=
EXTT8=
EXTT9=
PLAYORDER=
